<svg width="441.0386383805581" height="435.59375" viewBox="0 0 419.23824941117687 414.0625" class="css-1j8o68f">
    <defs id="SvgjsDefs1328"></defs>
    <g id="SvgjsG1329" featurekey="rootContainer" transform="matrix(3.9744554530272853,0,0,3.9744554530272853,-0.14910609175039674,0.11394855546207627)" fill="#ffffff">
        <path xmlns="http://www.w3.org/2000/svg" d="M104.6 41.3a52.2 52.2 0 0 0-3.5-11.2A51.1 51.1 0 0 0 44.3 1a49.6 49.6 0 0 0-5.7 1.5 49.1 49.1 0 0 0-7.9 2.7A51.6 51.6 0 0 0 6.3 77a53.7 53.7 0 0 0 4.1 6.4 57 57 0 0 0 5 5.7 51.7 51.7 0 0 0 55.3 11.5l3.3-1.4 3-1.5a50.9 50.9 0 0 0 5.8-3.8l2.7-2.1 1.2-1.1 1.1-.9 2-1.8.7-.6.6-.7 1.8-2a48.5 48.5 0 0 0 5.9-8.3 50.4 50.4 0 0 0 5.6-14.7 51.6 51.6 0 0 0 .2-20.4zM87.1 88.6l-1.2 1.1-1.2 1.1-2.6 2.1a49.5 49.5 0 0 1-5.7 3.6l-3 1.5-3.2 1.3-4.9 1.6h-.5a50.9 50.9 0 0 1-20.3.1 51.8 51.8 0 0 1-11.1-3.6A50.5 50.5 0 0 1 22.9 91a52 52 0 0 1-9.1-9.4 50.3 50.3 0 0 1-3.7-5.7c-.6-1-1.1-2-1.6-3.1s-1-2.1-1.3-3.2a50.6 50.6 0 0 1 8.6-50.8l.8-.8.5-.6.6-.6 1.2-1.1 2.4-2.1A50.5 50.5 0 0 1 62.4 3.2a48.5 48.5 0 0 1 14.7 5.2 47 47 0 0 1 8.3 5.8l2 1.8.7.6.6.7 1.8 2a49.7 49.7 0 0 1 11.3 22.9 50.8 50.8 0 0 1-.1 20.2 51.6 51.6 0 0 1-3.6 11 50.2 50.2 0 0 1-6.6 10.5l-2.1 2.4zm-44.9 13a50.1 50.1 0 0 1-13.7-5 51.8 51.8 0 0 1-6.2-4 55.2 55.2 0 0 1-5.5-4.8 49.9 49.9 0 0 1-11-53.2c.4-1.1.9-2.1 1.3-3.1l.6-1.3a50.2 50.2 0 0 0-3.4 11 51.3 51.3 0 0 0 2.4 28.5c.4 1.1.9 2.2 1.4 3.2s1 2.1 1.6 3.1a50.6 50.6 0 0 0 3.7 5.8 51.5 51.5 0 0 0 9.2 9.5 50.9 50.9 0 0 0 10.7 6.5 51 51 0 0 0 28.7 3.9 50.3 50.3 0 0 1-19.8-.1zm61.9-39.9a50.2 50.2 0 0 1-5.5 14.7 48.4 48.4 0 0 1-5.8 8.3l-1.8 2-.6.7-.7.6-1.9 1.7h.2l2.3-2.4 2.1-2.5A51.3 51.3 0 0 0 98.9 74a51.4 51.4 0 0 0 3.2-31.6 49.6 49.6 0 0 0-2.5-8.2 49.4 49.4 0 0 0-3.1-6.5 48.7 48.7 0 0 0-5.9-8.3l-1.8-2-.6-.7-.7-.6-2-1.8A49.9 49.9 0 0 0 77.3 8a49.3 49.3 0 0 0-6.5-3.2 49.8 49.8 0 0 0-8.2-2.6A52.2 52.2 0 0 0 49.9 1a50.8 50.8 0 0 1 22.7 3.2l3.2 1.3 3.1 1.6a50.1 50.1 0 0 1 5.7 3.7l2.6 2.1 1.2 1.1 1.2 1.1 2.3 2.3 2.1 2.4a50.4 50.4 0 0 1 6.5 10.5 51.6 51.6 0 0 1 3.6 11 51.1 51.1 0 0 1 0 20.3z"></path>
    </g>
    <g id="SvgjsG1330" featurekey="symbolFeature-0" transform="matrix(0.729360135363256,0,0,0.729360135363256,174.00010155351617,65.20906969869179)" fill="#ffffff">
        <path xmlns="http://www.w3.org/2000/svg" fill="none" d="M54.135,63.168c1.184,2.537,0.084,5.553-2.453,6.735L27.983,80.954c-2.536,1.184-5.552,0.085-6.735-2.451  L1.816,36.832c-1.183-2.538-0.085-5.553,2.451-6.735l23.698-11.05c2.537-1.183,5.554-0.086,6.736,2.451L54.135,63.168z"></path>
        <path xmlns="http://www.w3.org/2000/svg" fill="#ffffff" d="M26.273,81.394c-2.059,0.176-4.101-0.909-5.025-2.891L1.816,36.832c-1.183-2.538-0.085-5.553,2.451-6.735  l21.62-10.082c0.105-0.595,0.268-1.169,0.498-1.712L3.701,28.88c-3.203,1.493-4.594,5.315-3.102,8.518L20.032,79.07  c1.242,2.663,4.094,4.066,6.861,3.607C26.649,82.271,26.442,81.842,26.273,81.394z"></path>
        <g xmlns="http://www.w3.org/2000/svg">
            <path fill-rule="evenodd" clip-rule="evenodd" fill="#ffffff" d="M8.011,36.047c-0.112,0.417-0.21,0.815-0.327,1.209   c-0.235,0.787-0.87,1.222-1.613,1.116c-0.733-0.104-1.265-0.708-1.27-1.442C4.796,36.172,5.3,35.624,6.12,35.496   c0.405-0.062,0.81-0.125,1.383-0.212C7,34.99,6.625,34.792,6.274,34.56c-0.522-0.346-0.738-0.849-0.63-1.467   c0.106-0.612,0.548-1.056,1.16-1.172c0.62-0.118,1.152,0.082,1.47,0.612c0.168,0.285,0.212,0.672,0.22,1.015   c0.01,0.405-0.08,0.811-0.146,1.384c0.473-0.414,0.82-0.721,1.17-1.025c0.611-0.528,1.333-0.562,1.901-0.09   c0.575,0.476,0.706,1.245,0.323,1.893c-0.385,0.652-1.123,0.876-1.875,0.557c-0.395-0.167-0.779-0.359-1.168-0.542   c-0.046,0.046-0.092,0.091-0.137,0.136c0.287,0.336,0.514,0.778,0.877,0.978c0.38,0.209,0.889,0.187,1.432,0.281   c-1.093,0.509-2.077,0.969-3.185,1.485C8.072,37.776,8.983,37.014,8.011,36.047z"></path>
        </g>
        <path xmlns="http://www.w3.org/2000/svg" fill="none" d="M78.753,78.505c-1.184,2.535-4.198,3.633-6.736,2.449L48.318,69.903c-2.536-1.182-3.634-4.198-2.451-6.734  l19.431-41.671c1.184-2.538,4.2-3.634,6.735-2.452l23.698,11.05c2.537,1.184,3.636,4.199,2.452,6.736L78.753,78.505z"></path>
        <path xmlns="http://www.w3.org/2000/svg" fill="#ffffff" d="M96.3,28.88L73.614,18.302c0.229,0.542,0.393,1.117,0.497,1.712l21.621,10.082  c2.537,1.184,3.636,4.199,2.452,6.736L78.753,78.505c-0.925,1.98-2.967,3.065-5.026,2.889c-0.169,0.448-0.376,0.878-0.619,1.284  c2.767,0.459,5.619-0.944,6.86-3.607L99.4,37.399C100.893,34.197,99.501,30.374,96.3,28.88z"></path>
        <path xmlns="http://www.w3.org/2000/svg" fill-rule="evenodd" clip-rule="evenodd" fill="#ffffff" d="M91.298,35.725c-0.391,0.182-0.762,0.362-1.139,0.526  c-0.754,0.328-1.492,0.12-1.891-0.517c-0.391-0.628-0.271-1.425,0.288-1.899c0.578-0.492,1.323-0.458,1.947,0.087  c0.308,0.269,0.615,0.54,1.051,0.922c-0.099-0.574-0.187-0.987-0.233-1.405c-0.071-0.623,0.175-1.111,0.719-1.426  c0.534-0.312,1.16-0.259,1.643,0.135c0.489,0.399,0.678,0.936,0.475,1.519c-0.106,0.313-0.377,0.595-0.635,0.822  c-0.304,0.268-0.672,0.46-1.155,0.778c0.621,0.096,1.08,0.164,1.539,0.237c0.799,0.13,1.286,0.661,1.291,1.399  c0.004,0.746-0.498,1.342-1.242,1.464c-0.748,0.124-1.394-0.297-1.634-1.079c-0.124-0.41-0.225-0.828-0.335-1.243  c-0.064-0.006-0.128-0.012-0.191-0.018c-0.073,0.436-0.264,0.895-0.187,1.3c0.084,0.426,0.428,0.801,0.707,1.279  c-1.093-0.51-2.079-0.968-3.188-1.487C90.012,36.883,91.181,37.091,91.298,35.725z"></path>
        <g xmlns="http://www.w3.org/2000/svg">
            <path fill-rule="evenodd" clip-rule="evenodd" fill="#ffffff" d="M74.75,73.477c0.382-0.208,0.889-0.188,1.433-0.279   c-0.668-0.312-1.302-0.607-1.942-0.906v1.686C74.392,73.775,74.551,73.588,74.75,73.477z"></path>
            <path fill-rule="evenodd" clip-rule="evenodd" fill="#ffffff" d="M77.056,74.606c-0.387-0.652-1.244-0.877-1.996-0.56   C74.742,74.184,75,74.336,74,74.483v1.409c0,0.183,0.521,0.352,0.712,0.516c0.611,0.529,1.39,0.562,1.96,0.091   C77.248,76.022,77.439,75.254,77.056,74.606z"></path>
        </g>
        <path xmlns="http://www.w3.org/2000/svg" fill="none" d="M72.572,78.603c0,3.482-2.824,6.305-6.307,6.305H33.734c-3.481,0-6.305-2.822-6.305-6.305V21.398  c0-3.483,2.824-6.306,6.305-6.306h32.531c3.482,0,6.307,2.823,6.307,6.306V78.603z"></path>
        <path xmlns="http://www.w3.org/2000/svg" fill="#ffffff" d="M66.266,15.093c3.482,0,6.307,2.823,6.307,6.306v57.204c0,3.482-2.824,6.305-6.307,6.305H33.734  c-3.481,0-6.305-2.822-6.305-6.305V21.398c0-3.483,2.824-6.306,6.305-6.306H66.266 M66.266,13.424H33.734  c-4.396,0-7.975,3.578-7.975,7.975v57.204c0,4.396,3.579,7.974,7.975,7.974h32.531c4.396,0,7.975-3.577,7.975-7.974V21.398  C74.24,17.002,70.662,13.424,66.266,13.424L66.266,13.424z"></path>
        <path xmlns="http://www.w3.org/2000/svg" fill-rule="evenodd" clip-rule="evenodd" fill="#ffffff" d="M34.826,23.771c-0.346,0.411-0.666,0.809-1.004,1.191  c-0.679,0.765-1.622,0.921-2.405,0.411c-0.772-0.503-1.055-1.464-0.674-2.294c0.392-0.857,1.249-1.211,2.241-0.925  c0.49,0.143,0.979,0.286,1.67,0.488c-0.411-0.596-0.73-1.016-1.003-1.462c-0.407-0.665-0.386-1.345,0.06-1.986  c0.442-0.633,1.174-0.902,1.925-0.712c0.76,0.193,1.256,0.697,1.334,1.462c0.041,0.41-0.114,0.869-0.286,1.26  c-0.201,0.461-0.516,0.873-0.893,1.485c0.751-0.218,1.305-0.383,1.859-0.542c0.968-0.274,1.798,0.068,2.191,0.897  c0.397,0.839,0.141,1.775-0.631,2.304c-0.777,0.532-1.728,0.398-2.407-0.358c-0.358-0.396-0.689-0.815-1.033-1.225  c-0.076,0.027-0.151,0.053-0.226,0.08c0.146,0.53,0.17,1.148,0.474,1.564c0.319,0.437,0.904,0.678,1.467,1.07  c-1.5,0-2.851,0-4.373,0C33.986,25.753,35.413,25.373,34.826,23.771z"></path>
        <path xmlns="http://www.w3.org/2000/svg" fill-rule="evenodd" clip-rule="evenodd" fill="#ffffff" d="M64.225,23.771c-0.346,0.411-0.668,0.809-1.006,1.191  c-0.678,0.765-1.621,0.921-2.404,0.411c-0.771-0.503-1.055-1.464-0.674-2.294c0.393-0.857,1.25-1.211,2.24-0.925  c0.488,0.143,0.979,0.286,1.67,0.488c-0.412-0.596-0.729-1.016-1.002-1.462c-0.408-0.665-0.387-1.345,0.061-1.986  c0.439-0.633,1.172-0.902,1.924-0.712c0.76,0.193,1.256,0.697,1.334,1.462c0.043,0.41-0.113,0.869-0.285,1.26  c-0.201,0.461-0.516,0.873-0.893,1.485c0.75-0.218,1.303-0.383,1.859-0.542c0.969-0.274,1.797,0.068,2.191,0.897  c0.396,0.839,0.143,1.775-0.631,2.304c-0.779,0.532-1.729,0.398-2.41-0.358c-0.355-0.396-0.688-0.815-1.031-1.225  c-0.076,0.027-0.15,0.053-0.225,0.08c0.146,0.53,0.172,1.148,0.473,1.564c0.32,0.437,0.904,0.678,1.469,1.07c-1.5,0-2.852,0-4.375,0  C63.383,25.753,64.811,25.373,64.225,23.771z"></path>
        <path xmlns="http://www.w3.org/2000/svg" fill-rule="evenodd" clip-rule="evenodd" fill="#ffffff" d="M34.826,76.681c-0.346-0.411-0.666-0.811-1.004-1.191  c-0.679-0.768-1.622-0.922-2.405-0.412c-0.772,0.503-1.055,1.464-0.674,2.293c0.392,0.858,1.249,1.213,2.241,0.926  c0.49-0.143,0.979-0.285,1.67-0.488c-0.411,0.598-0.73,1.016-1.003,1.463c-0.407,0.665-0.386,1.345,0.06,1.986  c0.442,0.633,1.174,0.901,1.925,0.71c0.76-0.191,1.256-0.696,1.334-1.46c0.041-0.409-0.114-0.872-0.286-1.263  c-0.201-0.46-0.516-0.87-0.893-1.485c0.751,0.221,1.305,0.385,1.859,0.542c0.968,0.276,1.798-0.065,2.191-0.897  c0.397-0.839,0.141-1.774-0.631-2.303c-0.777-0.533-1.728-0.398-2.407,0.356c-0.358,0.397-0.689,0.817-1.033,1.226  c-0.076-0.026-0.151-0.053-0.226-0.079c0.146-0.53,0.17-1.149,0.474-1.564c0.319-0.436,0.904-0.678,1.467-1.069  c-1.5,0-2.851,0-4.373,0C33.986,74.698,35.413,75.077,34.826,76.681z"></path>
        <path xmlns="http://www.w3.org/2000/svg" fill-rule="evenodd" clip-rule="evenodd" fill="#ffffff" d="M64.225,76.681c-0.346-0.411-0.668-0.811-1.006-1.191  c-0.678-0.768-1.621-0.922-2.404-0.412c-0.771,0.503-1.055,1.464-0.674,2.293c0.393,0.858,1.25,1.213,2.24,0.926  c0.488-0.143,0.979-0.285,1.67-0.488c-0.412,0.598-0.729,1.016-1.002,1.463c-0.408,0.665-0.387,1.345,0.061,1.986  c0.439,0.633,1.172,0.901,1.924,0.71c0.76-0.191,1.256-0.696,1.334-1.46c0.043-0.409-0.113-0.872-0.285-1.263  c-0.201-0.46-0.516-0.87-0.893-1.485c0.75,0.221,1.303,0.385,1.859,0.542c0.969,0.276,1.797-0.065,2.191-0.897  c0.396-0.839,0.143-1.774-0.631-2.303c-0.779-0.533-1.729-0.398-2.41,0.356c-0.355,0.397-0.688,0.817-1.031,1.226  c-0.076-0.026-0.15-0.053-0.225-0.079c0.146-0.53,0.172-1.149,0.473-1.564c0.32-0.436,0.904-0.678,1.469-1.069  c-1.5,0-2.852,0-4.375,0C63.383,74.698,64.811,75.077,64.225,76.681z"></path>
        <path xmlns="http://www.w3.org/2000/svg" fill-rule="evenodd" clip-rule="evenodd" fill="#ffffff" d="M48.922,50.228c-0.785,0.932-1.512,1.836-2.279,2.704  c-1.541,1.735-3.682,2.09-5.459,0.933c-1.753-1.142-2.394-3.323-1.529-5.208c0.89-1.946,2.834-2.749,5.085-2.099  c1.111,0.324,2.221,0.648,3.79,1.108c-0.933-1.353-1.657-2.305-2.277-3.319c-0.924-1.509-0.875-3.052,0.136-4.507  c1.004-1.438,2.665-2.047,4.37-1.616c1.726,0.438,2.851,1.583,3.028,3.319c0.092,0.93-0.26,1.973-0.649,2.86  c-0.456,1.047-1.17,1.98-2.025,3.37c1.704-0.496,2.961-0.869,4.22-1.229c2.197-0.623,4.082,0.154,4.975,2.037  c0.902,1.905,0.32,4.03-1.434,5.23c-1.764,1.207-3.92,0.904-5.464-0.812c-0.813-0.899-1.564-1.851-2.344-2.78  c-0.173,0.061-0.343,0.12-0.513,0.182c0.331,1.203,0.387,2.606,1.076,3.549c0.723,0.992,2.052,1.54,3.33,2.429  c-3.406,0-6.471,0-9.925,0C47.015,54.725,50.253,53.862,48.922,50.228z"></path>
        <g xmlns="http://www.w3.org/2000/svg">
            <path fill-rule="evenodd" clip-rule="evenodd" fill="#ffffff" d="M23.445,47.155C24.154,47.625,25,48.04,26,48.595v-7.464   c-1-0.055-0.919-0.05-1.353,0.033c-1.388,0.265-2.391,1.273-2.634,2.662C21.771,45.229,22.259,46.369,23.445,47.155z"></path>
            <path fill-rule="evenodd" clip-rule="evenodd" fill="#ffffff" d="M26,48.853c-1,0.169-2.075,0.298-2.906,0.426   c-1.86,0.291-3.065,1.537-3.051,3.257c0.01,1.665,1.308,3.037,2.973,3.273C24.169,55.973,25,55.554,26,54.708V48.853z"></path>
        </g>
        <g xmlns="http://www.w3.org/2000/svg">
            <path fill-rule="evenodd" clip-rule="evenodd" fill="#ffffff" d="M26,74.486c-1-0.146-0.73-0.292-1.031-0.424   c-0.756-0.327-1.556-0.119-1.953,0.518c-0.392,0.629-0.3,1.425,0.258,1.898c0.578,0.493,1.427,0.46,2.052-0.085   c0.179-0.157,0.674-0.321,0.674-0.5V74.486z"></path>
            <path fill-rule="evenodd" clip-rule="evenodd" fill="#ffffff" d="M25.759,73.902v-1.611c-0.635,0.297-1.269,0.593-1.944,0.907   C24.503,73.381,25.356,73.305,25.759,73.902z"></path>
        </g>
        <g xmlns="http://www.w3.org/2000/svg">
            <path fill-rule="evenodd" clip-rule="evenodd" fill="#ffffff" d="M74,48.342c1-0.492,1.549-0.872,2.093-1.352   c0.584-0.515,1.255-1.155,1.505-1.863c0.459-1.325-0.061-2.542-1.17-3.447C75.734,41.114,75,40.861,74,40.929V48.342z"></path>
            <path fill-rule="evenodd" clip-rule="evenodd" fill="#ffffff" d="M76.964,49.294C76.094,49.156,75,49.023,74,48.855v5.868   c1,0.853,1.901,1.263,3.075,1.067c1.685-0.278,2.831-1.628,2.819-3.323C79.885,50.793,78.775,49.587,76.964,49.294z"></path>
        </g>
    </g>
    <g id="SvgjsG1331" featurekey="nameFeature-0" transform="matrix(1.1872657348528277,0,0,1.1872657348528277,134.24920393223903,134.41734081202875)" fill="#ffffff">
        <path d="M9.0312 40.5564 c-0.9032 0.028008 -1.7963 -0.10961 -2.6867 -0.2384 c-0.954 -0.1384 -1.9 -0.33719 -2.848 -0.5172 c-0.38 -0.071992 -0.7516 -0.17801 -1.106 -0.33602 c-0.20762 -0.092812 -0.39363 -0.21562 -0.55524 -0.37801 c-0.2132 -0.21442 -0.33442 -0.4676 -0.35363 -0.7708 c-0.018398 -0.29121 -0.0032031 -0.5792 0.078788 -0.86044 c0.2168 -0.7432 0.488 -1.4652 0.8468 -2.152 c0.05922 -0.1132 0.13203 -0.22199 0.21324 -0.32078 c0.30121 -0.36719 0.6868 -0.57116 1.1672 -0.5904 c0.35762 -0.013984 0.70524 0.042812 1.0516 0.12121 c0.502 0.1132 1.002 0.2368 1.5072 0.3352 c0.4732 0.092384 0.9508 0.16558 1.4284 0.23277 c0.8376 0.1184 1.6692 0.0584 2.494 -0.1184 c0.4104 -0.0884 0.8032 -0.22879 1.1824 -0.41116 c0.4744 -0.22762 0.8612 -0.5628 1.1824 -0.97244 c0.58 -0.74 0.5664 -1.7736 -0.033594 -2.4968 c-0.33039 -0.39801 -0.718 -0.73404 -1.1596 -1.01 c-0.602 -0.3768 -1.2412 -0.6788 -1.8816 -0.9808 c-0.6984 -0.32922 -1.3972 -0.6576 -2.0932 -0.9912 c-0.6684 -0.32039 -1.3016 -0.7024 -1.9268 -1.0996 c-0.7652 -0.4868 -1.4576 -1.0568 -2.0756 -1.7192 c-1.2596 -1.3504 -1.9228 -2.9412 -1.9636 -4.7952 c-0.028789 -1.3156 0.27281 -2.5548 0.8152 -3.7392 c0.5052 -1.1028 1.2656 -2.0116 2.21 -2.7648 c1.176 -0.938 2.5192 -1.5428 3.9604 -1.938 c0.7768 -0.2132 1.5656 -0.37039 2.3688 -0.4476 c0.608 -0.058008 1.2116 -0.1552 1.826 -0.1568 c1.2312 -0.0032031 2.4352 0.19801 3.6296 0.4664 c0.5016 0.11238 0.9968 0.25797 1.4888 0.40956 c0.30641 0.094412 0.6028 0.22281 0.9 0.3452 c0.11801 0.0484 0.23039 0.1152 0.33758 0.18558 c0.6928 0.4528 0.9276 1.0352 0.686 1.8268 c-0.1684 0.5528 -0.3916 1.0892 -0.5984 1.63 c-0.045196 0.11879 -0.11598 0.23 -0.18719 0.33641 c-0.3732 0.5556 -0.88244 0.83956 -1.5616 0.7324 c-0.34879 -0.054804 -0.6948 -0.13281 -1.0368 -0.22121 c-0.7176 -0.18558 -1.4404 -0.33879 -2.1756 -0.434 c-0.7408 -0.096016 -1.4776 -0.084412 -2.2056 0.0916 c-0.24961 0.060392 -0.4948 0.14039 -0.7372 0.22598 c-0.4672 0.16442 -0.84436 0.4584 -1.1616 0.8348 c-0.518 0.616 -0.62084 1.5592 -0.23043 2.264 c0.092384 0.1668 0.21476 0.32039 0.34195 0.464 c0.4108 0.4624 0.8988 0.8272 1.4552 1.0972 c0.8968 0.4356 1.7924 0.8748 2.6948 1.2996 c1.2244 0.576 2.4148 1.212 3.5384 1.968 c0.8356 0.562 1.56 1.254 2.178 2.0368 c0.858 1.0876 1.3096 2.3476 1.3836 3.7416 c0.063984 1.21 -0.13203 2.3716 -0.57324 3.496 c-0.3448 0.8788 -0.828 1.6696 -1.4892 2.3476 c-0.15762 0.16121 -0.31641 0.32043 -0.4736 0.48204 c-1.0036 1.0324 -2.1956 1.7632 -3.532 2.2936 c-1.4796 0.5872 -3.0092 0.9236 -4.5864 1.0828 c-0.5764 0.0584 -1.1508 0.13039 -1.734 0.1132 z M27.948999999999998 40 c-0.4 0 -0.76 -0.08 -1.16 -0.16 c-0.52 -0.16 -0.92 -0.48 -1 -1.04 c-0.12 -0.44 -0.16 -0.84 -0.2 -1.24 l0 -0.88 l0 -21.36 c0 -0.72 0.04 -1.44 0.16 -2.12 c0.08 -0.36 0.28 -0.64 0.6 -0.84 c0.12 -0.12 0.28 -0.2 0.44 -0.2 c0.28 -0.08 0.56 -0.16 0.84 -0.16 l3.76 0 c0.28 0 0.6 0.08 0.88 0.16 c0.52 0.12 0.88 0.48 1.04 1.04 c0.08 0.28 0.12 0.6 0.12 0.92 c0.04 0.32 0.04 0.64 0.04 0.96 l0 5.32 c0 0.44 0 0.84 0.04 1.28 c0.04 0.36 0.2 0.68 0.44 0.96 c0.28 0.32 0.6 0.52 1.08 0.56 c0.24 0.04 0.48 0.04 0.76 0.04 l3.96 0 c0.28 0 0.56 0 0.88 -0.04 c0.76 -0.12 1.28 -0.6 1.44 -1.36 c0.04 -0.24 0.08 -0.44 0.08 -0.68 l0 -1.16 l0 -5.2 c0 -0.36 0.04 -0.72 0.04 -1.08 c0.04 -1 0.72 -1.64 1.64 -1.68 c0.2 0 0.4 -0.04 0.6 -0.04 l3.16 0 c0.32 0 0.64 0.04 0.96 0.08 c0.8 0.16 1.24 0.68 1.36 1.48 c0.04 0.32 0.04 0.68 0.04 1.04 l0 4.56 l0 6.76 l0 10.84 c0 0.44 0 0.88 -0.04 1.32 c0 0.28 -0.04 0.52 -0.12 0.76 c-0.16 0.52 -0.48 0.84 -1 1 c-0.4 0.08 -0.8 0.16 -1.24 0.16 l-3 0 c-0.32 0 -0.68 -0.08 -1.04 -0.12 c-0.76 -0.16 -1.2 -0.6 -1.28 -1.36 c-0.04 -0.28 -0.04 -0.52 -0.04 -0.8 c-0.04 -0.48 -0.04 -1 -0.04 -1.52 l0 -3.96 c0 -0.48 0 -0.96 -0.16 -1.44 c-0.12 -0.48 -0.4 -0.8 -0.8 -1.04 c-0.2 -0.08 -0.44 -0.12 -0.64 -0.16 c-0.24 -0.04 -0.48 -0.04 -0.68 -0.04 l-4.16 0 c-0.28 0 -0.6 0 -0.88 0.04 c-0.68 0.12 -1.08 0.52 -1.24 1.2 c-0.08 0.2 -0.08 0.44 -0.12 0.64 l0 1.08 l0 4.56 c0 0.32 -0.04 0.64 -0.04 0.96 s-0.08 0.64 -0.2 0.92 c-0.12 0.44 -0.44 0.72 -0.84 0.84 c-0.44 0.12 -0.84 0.2 -1.24 0.2 l-3.2 0 z M55.937999999999995 40 c-0.32 0 -0.64 -0.04 -0.96 -0.12 c-0.16 0 -0.32 -0.04 -0.48 -0.12 c-0.4 -0.16 -0.64 -0.48 -0.68 -0.96 c0 -0.2 0 -0.44 0.08 -0.68 c0.08 -0.4 0.2 -0.8 0.32 -1.2 c1.16 -3.4 2.28 -6.84 3.4 -10.28 c1 -2.96 1.96 -5.92 2.92 -8.88 c0.4 -1.16 0.76 -2.32 1.16 -3.48 c0.12 -0.36 0.24 -0.68 0.4 -1 c0.32 -0.76 0.92 -1.12 1.72 -1.24 c0.28 -0.04 0.56 -0.04 0.88 -0.04 l1.92 0 l3.76 0 c0.36 0 0.72 0.04 1.08 0.08 c0.68 0.08 1.2 0.44 1.52 1.04 c0.16 0.36 0.32 0.68 0.44 1.08 c0.44 1.2 0.8 2.44 1.2 3.64 c0.44 1.28 0.84 2.52 1.24 3.76 c0.88 2.72 1.8 5.4 2.68 8.08 c0.8 2.44 1.6 4.92 2.4 7.36 c0.12 0.32 0.2 0.68 0.28 1.04 c0.08 0.2 0.08 0.44 0.12 0.64 c0 0.48 -0.28 0.88 -0.72 1.04 c-0.36 0.16 -0.68 0.2 -1.04 0.2 c-0.44 0.04 -0.84 0.04 -1.28 0.04 l-0.76 0 l-1.56 0 c-0.32 -0.04 -0.68 -0.08 -1.04 -0.12 c-0.76 -0.12 -1.28 -0.56 -1.56 -1.28 c-0.12 -0.28 -0.24 -0.6 -0.32 -0.88 c-0.12 -0.36 -0.24 -0.68 -0.36 -1 c-0.36 -0.84 -0.96 -1.36 -1.88 -1.44 c-0.32 -0.04 -0.6 -0.04 -0.88 -0.04 l-4.64 0 c-0.44 0 -0.84 0 -1.24 0.08 c-0.68 0.12 -1.12 0.48 -1.44 1.04 c-0.24 0.4 -0.36 0.84 -0.52 1.28 c-0.08 0.32 -0.2 0.68 -0.32 1 c-0.12 0.24 -0.24 0.44 -0.44 0.64 c-0.24 0.28 -0.56 0.48 -0.96 0.56 c-0.4 0.12 -0.84 0.16 -1.24 0.16 l-3.2 0 z M67.458 29.64 c0.44 -0.04 0.8 -0.04 1.16 -0.04 c0.28 -0.04 0.56 -0.08 0.84 -0.2 c0.4 -0.2 0.68 -0.48 0.72 -0.96 c0.04 -0.4 -0.04 -0.84 -0.12 -1.24 l-0.48 -1.68 c-0.28 -0.96 -0.56 -1.88 -0.84 -2.84 c-0.08 -0.32 -0.2 -0.64 -0.32 -0.92 c-0.08 -0.16 -0.2 -0.32 -0.32 -0.48 c-0.36 -0.4 -0.76 -0.4 -1.08 0 c-0.12 0.2 -0.24 0.4 -0.32 0.6 c-0.16 0.32 -0.28 0.64 -0.36 1 c-0.4 1.4 -0.8 2.76 -1.2 4.16 c-0.04 0.24 -0.12 0.44 -0.12 0.68 c-0.04 0.2 -0.04 0.44 -0.04 0.64 c0 0.32 0.16 0.56 0.36 0.76 c0.28 0.28 0.6 0.4 0.96 0.44 c0.4 0.04 0.84 0.04 1.16 0.08 z M88.447 40 c-0.36 0 -0.72 0 -1.08 -0.04 c-0.36 0 -0.72 -0.04 -1.04 -0.16 c-0.52 -0.16 -0.88 -0.52 -1 -1.08 c-0.08 -0.24 -0.08 -0.52 -0.12 -0.76 l0 -1.08 l0 -21.84 l0 -0.96 c0 -0.16 0 -0.32 0.04 -0.48 c0.08 -0.88 0.6 -1.4 1.48 -1.52 c0.24 -0.04 0.48 -0.08 0.76 -0.08 l3.28 0 c0.36 0 0.72 0.04 1.04 0.12 c0.6 0.16 0.96 0.52 1.08 1.12 c0.04 0.24 0.08 0.44 0.08 0.68 l0 1.16 l0 7.44 l0 7.44 c0 0.68 0.04 1.36 0.12 2.04 c0.04 0.2 0.04 0.36 0.12 0.56 c0.16 0.52 0.52 0.88 1.04 1.04 c0.2 0.04 0.44 0.08 0.68 0.08 c1.04 0.08 2.12 0.12 3.16 0.12 l3.4 0 c0.36 0 0.72 0 1.08 0.08 c0.6 0.08 1.04 0.44 1.2 1.08 c0.04 0.16 0.08 0.36 0.12 0.56 c0.04 0.88 0.04 1.72 0 2.6 c0 0.24 -0.08 0.44 -0.12 0.68 c-0.16 0.52 -0.48 0.88 -1.04 1 c-0.36 0.08 -0.72 0.16 -1.04 0.16 c-0.32 0.04 -0.68 0.04 -1 0.04 l-12.24 0 z M110.836 40 c-0.36 0 -0.72 0 -1.08 -0.04 c-0.36 0 -0.72 -0.04 -1.04 -0.16 c-0.52 -0.16 -0.88 -0.52 -1 -1.08 c-0.08 -0.24 -0.08 -0.52 -0.12 -0.76 l0 -1.08 l0 -21.84 l0 -0.96 c0 -0.16 0 -0.32 0.04 -0.48 c0.08 -0.88 0.6 -1.4 1.48 -1.52 c0.24 -0.04 0.48 -0.08 0.76 -0.08 l3.28 0 c0.36 0 0.72 0.04 1.04 0.12 c0.6 0.16 0.96 0.52 1.08 1.12 c0.04 0.24 0.08 0.44 0.08 0.68 l0 1.16 l0 7.44 l0 7.44 c0 0.68 0.04 1.36 0.12 2.04 c0.04 0.2 0.04 0.36 0.12 0.56 c0.16 0.52 0.52 0.88 1.04 1.04 c0.2 0.04 0.44 0.08 0.68 0.08 c1.04 0.08 2.12 0.12 3.16 0.12 l3.4 0 c0.36 0 0.72 0 1.08 0.08 c0.6 0.08 1.04 0.44 1.2 1.08 c0.04 0.16 0.08 0.36 0.12 0.56 c0.04 0.88 0.04 1.72 0 2.6 c0 0.24 -0.08 0.44 -0.12 0.68 c-0.16 0.52 -0.48 0.88 -1.04 1 c-0.36 0.08 -0.72 0.16 -1.04 0.16 c-0.32 0.04 -0.68 0.04 -1 0.04 l-12.24 0 z"></path>
    </g>
    <g id="SvgjsG1332" featurekey="nameFeature-1" transform="matrix(5.067415190919695,0,0,5.067415190919695,123.83820305852636,135.52741141735285)" fill="#ffffff">
        <path d="M4.84 40 c-0.32 0 -0.64 -0.08 -0.96 -0.12 c-0.16 0 -0.32 -0.04 -0.44 -0.12 c-0.4 -0.12 -0.68 -0.4 -0.8 -0.8 c-0.12 -0.28 -0.2 -0.6 -0.2 -0.92 c-0.04 -0.32 -0.04 -0.64 -0.04 -0.96 l0 -22.24 c0 -0.44 0 -0.92 0.08 -1.36 c0.12 -0.84 0.64 -1.32 1.48 -1.44 c0.24 0 0.52 -0.04 0.76 -0.04 l3.28 0 c0.2 0 0.4 0 0.6 0.04 c0.16 0.04 0.36 0.08 0.56 0.12 c0.48 0.16 0.8 0.52 0.96 1 c0.08 0.36 0.12 0.72 0.12 1.08 c0 0.32 0.04 0.68 0.04 1.04 l0 10.72 l0 10.76 c0 0.36 -0.04 0.68 -0.04 1.04 s-0.04 0.72 -0.16 1.08 c-0.12 0.4 -0.4 0.72 -0.8 0.88 c-0.16 0.04 -0.32 0.12 -0.48 0.12 c-0.32 0.04 -0.64 0.12 -0.96 0.12 l-3 0 z M31.638 18.408 c-0.092812 -1.6028 -0.60536 -3.0296 -1.7677 -4.1808 c-0.20641 -0.20442 -0.4132 -0.40884 -0.624 -0.60884 c-0.33 -0.3132 -0.7008 -0.5676 -1.1032 -0.7812 c-1.0056 -0.5336 -2.0608 -0.93756 -3.1788 -1.1444 c-1.5272 -0.28199 -3.064 -0.4788 -4.6216 -0.25277 c-0.1916 0.027617 -0.38641 0.03 -0.5788 0.051212 c-1.1916 0.12961 -2.364 0.35 -3.4924 0.7652 c-0.27199 0.1 -0.544 0.20961 -0.79756 0.34801 c-0.19558 0.10641 -0.3732 0.25281 -0.54 0.4028 c-0.22398 0.20199 -0.33918 0.4664 -0.36797 0.7684 c-0.037617 0.39039 -0.017617 0.7796 0.11078 1.1492 c0.19121 0.5484 0.406 1.0884 0.6192 1.6292 c0.083204 0.2116 0.21641 0.39558 0.3748 0.5604 c0.23281 0.24199 0.5112 0.38879 0.8492 0.4164 c0.3568 0.029609 0.7104 0.010391 1.0596 -0.067616 c0.3152 -0.070392 0.6284 -0.14801 0.9424 -0.22359 c0.794 -0.19 1.5992 -0.20281 2.408 -0.15281 c0.4276 0.026406 0.8212 0.16801 1.1864 0.3868 c0.5888 0.35199 0.9504 0.86756 1.0588 1.5444 c0.035195 0.22 0.029609 0.4512 0.0092188 0.6744 c-0.045196 0.4864 -0.1932 0.9464 -0.39762 1.3904 c-0.3384 0.7356 -0.7524 1.4264 -1.1976 2.102 c-0.4796 0.7276 -0.9408 1.4672 -1.4064 2.2044 c-0.27762 0.4396 -0.458 0.92564 -0.6364 1.4104 c-0.17039 0.4632 -0.20199 0.9452 -0.14039 1.4328 c0.048008 0.37879 0.25402 0.6572 0.5744 0.8524 c0.22359 0.1368 0.4724 0.2132 0.73276 0.23082 c0.38641 0.026406 0.7736 0.037617 1.0992 0.052424 c0.4172 -0.012383 0.7724 -0.018398 1.1272 -0.034805 c0.6068 -0.027617 1.1308 -0.24641 1.5496 -0.6948 c0.19801 -0.21199 0.41084 -0.4148 0.5824 -0.6472 c0.6188 -0.838 1.3652 -1.552 2.1532 -2.2212 c0.7892 -0.6704 1.5168 -1.4024 2.2432 -2.1372 c0.5268 -0.5328 0.9564 -1.1396 1.3132 -1.792 c0.5832 -1.066 0.9284 -2.2 0.8568 -3.4328 z M17.4616 35.9856 c-0.033594 0.7432 0.11078 1.4295 0.4488 2.0719 c1.1768 2.2344 3.628 2.7128 5.3684 2.094 c0.36602 -0.13 0.71724 -0.2948 1.028 -0.53 c0.9376 -0.7084 1.5316 -1.644 1.7884 -2.7868 c0.12121 -0.5404 0.13121 -1.0952 -0.0023828 -1.632 c-0.4624 -1.8572 -1.6056 -3.068 -3.4952 -3.4672 c-1.3804 -0.29199 -2.6184 0.0716 -3.66 1.0428 c-0.1648 0.15398 -0.31879 0.31918 -0.4764 0.4808 c-0.20398 0.20922 -0.36199 0.45044 -0.502 0.70644 c-0.34801 0.6364 -0.5376 1.3096 -0.4976 2.02 z"></path>
    </g>
</svg>